<svg xmlns="http://www.w3.org/2000/svg" width="215.12565" height="539.22316" viewBox="0 0 215.12565 539.22316" xmlns:xlink="http://www.w3.org/1999/xlink"><path d="M47.40537,78.35463c0-4.32129,1.71973-8.5498,4.9502-11.69727L97.90635,22.28531c1.18848-4.52246,3.45996-8.75195,6.57324-12.23926,3.7627-4.32812,8.37988-7.46777,13.00195-8.83887,4.70215-1.39648,8.85742-.80371,11.70117,1.66797,5.80176,5.04199,4.15723,16.46777-3.66406,25.46582-3.01367,3.56543-6.88379,6.40332-11.19434,8.20898l-41.34961,42.62401,22.76367,34.49609c4.4082,5.13965,5.38477,12.25488,2.5127,18.5166-2.77441,6.0498-8.5752,9.81836-15.13965,9.83496-7.02148,.01758-13.23828-4.18555-15.83984-10.70703l-18.69531-46.88379c-.78809-1.97656-1.1709-4.03711-1.1709-6.07617Z" fill="#ffb6b6"/><path d="M137.99641,489.04353l-.23828-.24707-66.96289-69.57227c-6.48145-6.7334-9.61914-15.9248-8.60938-25.2168l3.49316-32.14551,33.91309,6.16602,1.29688,20.26562,56.96094,92.39062-19.85352,8.35938Z" fill="#ffb6b6"/><path d="M146.13325,539.22316c-1.08008,0-2.14746-.27539-3.12109-.81543-2.35742-1.31055-3.65918-3.98145-3.23926-6.64551l2.32812-14.74023-12.01953-26.04297,3.16992-9.50977,18.14844-1.00781,6.04883-6.04883,6.77441,1.17871c4.05273,.7041,7.42676,3.22168,9.25684,6.90527,1.8291,3.68457,1.79688,7.89258-.08984,11.54785l-21.51367,41.68262c-.80762,1.56445-2.18066,2.70703-3.86621,3.21582-.61914,.1875-1.25,.28027-1.87695,.28027Z" fill="#2f2e41"/><polygon points="112.11848 294.44978 99.11848 376.44978 36.11849 406.44978 26.11849 326.44978 112.11848 294.44978" fill="#2f2e41"/><path d="M75.99641,465.04353l-.23828-.24707L8.79523,395.2242c-6.48145-6.7334-9.61914-15.9248-8.60938-25.2168l3.49316-32.14551,33.91309,6.16602,1.29688,20.26562,56.96094,92.39062-19.85352,8.35938Z" fill="#ffb6b6"/><path d="M84.13325,515.22316c-1.08008,0-2.14746-.27539-3.12109-.81543-2.35742-1.31055-3.65918-3.98145-3.23926-6.64551l2.32812-14.74023-12.01953-26.04297,3.16992-9.50977,18.14844-1.00781,6.04883-6.04883,6.77441,1.17871c4.05273,.7041,7.42676,3.22168,9.25684,6.90527,1.8291,3.68457,1.79688,7.89258-.08984,11.54785l-21.51367,41.68262c-.80762,1.56445-2.18066,2.70703-3.86621,3.21582-.61914,.1875-1.25,.28027-1.87695,.28027Z" fill="#2f2e41"/><path d="M40.45649,266.981l-7.03711,19.1416L1.81782,337.73488c-.92871,1.51562-1.07812,3.3291-.41016,4.97656,.66797,1.64648,2.03809,2.84375,3.75879,3.28516l69.74414,17.88379,32.28711-45.33984c9.20996-12.93457,13.97461-28.7666,13.4375-44.63086l-80.17871-6.92871v.00003Z" fill="#2f2e41"/><path d="M112.43891,286.44975H32.40668l.04492-.54102,10.10449-122.4751c1.32422-16.05176,9.625-30.5918,22.77344-39.89209l.13867-.09766,54.70508,2.02588-11.87695,110.38818,15.79395,31.7959c2.0166,4.06152,1.79492,8.78711-.59473,12.64063-2.38867,3.85449-6.52246,6.15527-11.05664,6.15527Z" fill="#e6e6e6"/><polygon points="104.36881 98.29448 77.57285 118.72023 111.56791 142.0695 128.6265 105.50358 104.36881 98.29448" fill="#ffb6b6"/><path d="M139.4369,90.21519c-23.13535-.9723-7.48087,9.46036-50.51589,8.43162-1.50218-.03591-13.08047,20.23536-13.08441,21.73796-.01521,5.80281,8.61837,5.83843,14.00173,3.85844-17.73728,14.00939,29.40656,15.63867,22.13056,37.03806-3.61267,10.62517-9.76075,20.17404-14.64816,30.27645-16.51144,34.1296-92.0211,78.54977-64.58258,136.47666,25.42744,22.99487,21.07243,40.90116,12.62522,58.07921-7.50967,15.27148,4.02653,33.0023,21.03011,32.30126,12.13548-.50033,41.74108,34.14047,63.82105,34.07211,31.5315-.09763,45.07475-33.06791,75.26349-23.96381,42.84824-61.8279-71.17074-52.4539-66.84882-115.55941,.73159-10.68218,18.82245-59.35947,15.58771-69.56634-8.80509-27.78342,21.04017-73.54643,19.20286-92.64056-1.85496-19.27744,1.28023-28.74184-20.18728-46.80941,2.21345-3.14958,4.42689-6.29917,6.64034-9.44875-7.87345-5.01416-18.24205-5.86475-26.82742-2.20077" fill="#42d392"/><circle cx="118.98453" cy="87.50115" r="28.36702" fill="#ffb6b6"/><path d="M121.19074,119.28914s6.39191-20.46286,2.26129-24.33044-3.99911,.13153-3.99911,.13153l5.23892-19.71844s-2.49625-11.45721-19.03278-13.03284c0,0,5.87415-11.14375,14.41248-9.30508,8.53833,1.83865,9.07843,3.94035,12.70535,3.23235,3.62689-.70802,11.14374,5.87416,11.14374,5.87416,0,0,3.85004-3.14171,3.41385,.73514-.43622,3.87685,3.65509,10.21381,3.65509,10.21381,0,0,2.32944-1.45251,1.68811,2.61469-.64133,4.06717,2.37268,6.20526,2.37268,6.20526,0,0-3.99011,2.57611-2.71008,4.60852,1.28,2.03241,6.39572,3.63037,4.46194,5.69568s-.48138,6.84521-7.02716,11.88815-28.58429,15.18756-28.58429,15.18756l-.00003-.00003Z" fill="#2f2e41"/><path d="M90.55207,148.08259c-4.56738,.00098-9.02148-1.85254-12.31348-5.3291l-34.69922-36.65527c-4.56348-4.82031-5.7627-11.85059-3.05566-17.91113l25.92578-58.06641c-.56836-4.64062-.02051-9.41016,1.58594-13.80176,1.89551-5.41113,5.02539-10.03516,8.8125-13.01758,3.85449-3.03613,7.93359-4.02246,11.48926-2.77441,7.25488,2.54102,9.9502,13.76367,6.00781,25.0166-1.48242,4.4248-4.03027,8.49316-7.36816,11.76562l-22.66895,54.8877,33.90137,23.6416c5.99414,3.14551,9.53223,9.39453,9.17773,16.27637-.3418,6.64746-4.33984,12.29297-10.43359,14.7334-2.07324,.83105-4.22949,1.23438-6.36133,1.23438Z" fill="#ffb6b6"/></svg>