<svg xmlns="http://www.w3.org/2000/svg" data-name="Layer 1" width="723" height="474" viewBox="0 0 723 474" xmlns:xlink="http://www.w3.org/1999/xlink"><path d="M597.11024,275h-43a9.5108,9.5108,0,0,1-9.5-9.5v-43a9.5108,9.5108,0,0,1,9.5-9.5h43a9.51081,9.51081,0,0,1,9.5,9.5v43A9.51081,9.51081,0,0,1,597.11024,275Zm-43-60a7.50836,7.50836,0,0,0-7.5,7.5v43a7.50836,7.50836,0,0,0,7.5,7.5h43a7.50836,7.50836,0,0,0,7.5-7.5v-43a7.50836,7.50836,0,0,0-7.5-7.5Z" transform="translate(-238.5 -213)" fill="#ccc"/><path d="M588.61024,263h-26a3.00328,3.00328,0,0,1-3-3V228a3.00328,3.00328,0,0,1,3-3h18.83935a3.00734,3.00734,0,0,1,1.8794.66162l7.16015,5.75391a2.98438,2.98438,0,0,1,1.1211,2.33838V260A3.00328,3.00328,0,0,1,588.61024,263Zm-26-36a1.0013,1.0013,0,0,0-1,1v32a1.0013,1.0013,0,0,0,1,1h26a1.0013,1.0013,0,0,0,1-1V233.75391a.99457.99457,0,0,0-.37354-.7793l-7.16113-5.7544a1.00208,1.00208,0,0,0-.626-.22021Z" transform="translate(-238.5 -213)" fill="#ccc"/><path d="M583.61024,239h-16a1,1,0,0,1,0-2h16a1,1,0,0,1,0,2Z" transform="translate(-238.5 -213)" fill="#ccc"/><path d="M583.61024,245h-16a1,1,0,0,1,0-2h16a1,1,0,0,1,0,2Z" transform="translate(-238.5 -213)" fill="#ccc"/><path d="M583.61024,251h-16a1,1,0,0,1,0-2h16a1,1,0,0,1,0,2Z" transform="translate(-238.5 -213)" fill="#ccc"/><path d="M699.11024,275h-43a9.5108,9.5108,0,0,1-9.5-9.5v-43a9.5108,9.5108,0,0,1,9.5-9.5h43a9.51081,9.51081,0,0,1,9.5,9.5v43A9.51081,9.51081,0,0,1,699.11024,275Zm-43-60a7.50836,7.50836,0,0,0-7.5,7.5v43a7.50836,7.50836,0,0,0,7.5,7.5h43a7.50836,7.50836,0,0,0,7.5-7.5v-43a7.50836,7.50836,0,0,0-7.5-7.5Z" transform="translate(-238.5 -213)" fill="#ccc"/><path d="M691.61024,255h-28a3.00328,3.00328,0,0,1-3-3V236a3.00328,3.00328,0,0,1,3-3h28a3.00328,3.00328,0,0,1,3,3v16A3.00328,3.00328,0,0,1,691.61024,255Zm-28-20a1.001,1.001,0,0,0-1,1v16a1.001,1.001,0,0,0,1,1h28a1.001,1.001,0,0,0,1-1V236a1.001,1.001,0,0,0-1-1Z" transform="translate(-238.5 -213)" fill="#ccc"/><path d="M677.61024,246.63818a3.00356,3.00356,0,0,1-1.58985-.45263L661.08,236.84814a1.00027,1.00027,0,0,1,1.06055-1.69628l14.94043,9.3374a1.00557,1.00557,0,0,0,1.05957,0l14.93945-9.3374a1.00027,1.00027,0,0,1,1.06055,1.69628l-14.93945,9.33741A3.0044,3.0044,0,0,1,677.61024,246.63818Z" transform="translate(-238.5 -213)" fill="#ccc"/><path d="M495.11024,275h-43a9.5108,9.5108,0,0,1-9.5-9.5v-43a9.5108,9.5108,0,0,1,9.5-9.5h43a9.51081,9.51081,0,0,1,9.5,9.5v43A9.51081,9.51081,0,0,1,495.11024,275Zm-43-60a7.50836,7.50836,0,0,0-7.5,7.5v43a7.50836,7.50836,0,0,0,7.5,7.5h43a7.50836,7.50836,0,0,0,7.5-7.5v-43a7.50836,7.50836,0,0,0-7.5-7.5Z" transform="translate(-238.5 -213)" fill="#ccc"/><path d="M487.61024,255h-28a3.00328,3.00328,0,0,1-3-3V236a3.00328,3.00328,0,0,1,3-3h28a3.00328,3.00328,0,0,1,3,3v16A3.00328,3.00328,0,0,1,487.61024,255Zm-28-20a1.001,1.001,0,0,0-1,1v16a1.001,1.001,0,0,0,1,1h28a1.001,1.001,0,0,0,1-1V236a1.001,1.001,0,0,0-1-1Z" transform="translate(-238.5 -213)" fill="#ccc"/><path d="M483.17225,255h-20.124a1.99958,1.99958,0,0,1-1.73193-3l6.06152-10.5a2.00022,2.00022,0,0,1,3.46436,0l3.915,6.78125,2.26807-3.92871a2.00022,2.00022,0,0,1,3.46435,0L484.90467,252a2,2,0,0,1-1.73242,3Zm0-2h0l-4.415-7.64746-3.13379,5.42871a.99985.99985,0,0,1-.86621.5h0a.99985.99985,0,0,1-.86621-.5L469.11024,242.5l-6.062,10.5Z" transform="translate(-238.5 -213)" fill="#ccc"/><circle cx="246.11013" cy="25.9998" r="2" fill="#ccc"/><path d="M467.11024,369h-43a9.5108,9.5108,0,0,1-9.5-9.5v-43a9.5108,9.5108,0,0,1,9.5-9.5h43a9.51081,9.51081,0,0,1,9.5,9.5v43A9.51081,9.51081,0,0,1,467.11024,369Zm-43-60a7.50836,7.50836,0,0,0-7.5,7.5v43a7.50836,7.50836,0,0,0,7.5,7.5h43a7.50836,7.50836,0,0,0,7.5-7.5v-43a7.50836,7.50836,0,0,0-7.5-7.5Z" transform="translate(-238.5 -213)" fill="#3f3d56"/><path d="M459.61024,351.5h-28a3.00328,3.00328,0,0,1-3-3v-21a3.00328,3.00328,0,0,1,3-3h7.88232a2.98117,2.98117,0,0,1,2.55518,1.42725L444.246,329.5h15.36426a3.00328,3.00328,0,0,1,3,3v16A3.00328,3.00328,0,0,1,459.61024,351.5Z" transform="translate(-238.5 -213)" fill="#42d392"/><circle cx="101.16464" cy="139.20953" r="23.17166" fill="#ffb8b8"/><path d="M331.29858,489.32045q-.43775,0-.8794-.03869a10.38021,10.38021,0,0,1-9.31639-12.37426,9.7164,9.7164,0,0,1,.25474-.98673L287.15811,435.473a8.06134,8.06134,0,0,1-.56085-9.60845l.062-.07555,30.78362-30.35383a8.89853,8.89853,0,1,1,12.3784,12.78609l-22.29549,21.1959,24.40808,39.17454a9.87811,9.87811,0,0,1,1.37668.16953,10.38,10.38,0,0,1-2.01193,20.55926Z" transform="translate(-238.5 -213)" fill="#ffb8b8"/><polygon points="139.328 461.701 150.895 461.701 156.397 417.088 139.326 417.089 139.328 461.701" fill="#ffb8b8"/><path d="M374.87818,670.92506l22.778-.00092h.00093A14.51568,14.51568,0,0,1,412.17323,685.44v.47172l-37.29436.00138Z" transform="translate(-238.5 -213)" fill="#2f2e41"/><polygon points="24.366 445.71 34.304 451.627 61.857 416.11 47.189 407.377 24.366 445.71" fill="#ffb8b8"/><path d="M262.26292,653.95552l19.57165,11.65288.00079.00047a14.51569,14.51569,0,0,1,5.04581,19.89892l-.24134.40531-32.04448-19.07932Z" transform="translate(-238.5 -213)" fill="#2f2e41"/><path d="M392.12393,658.94385h-12.9517a4.23772,4.23772,0,0,1-4.22149-3.79676l-13.05718-122.7374a1.41542,1.41542,0,0,0-2.69717-.433L335.641,584.13539l-41.70357,68.00266a4.26565,4.26565,0,0,1-5.32892,1.66575l-16.66024-7.33a4.24673,4.24673,0,0,1-1.93477-6.06413l38.33707-64.19208,11.75766-54.0852c-3.69795-23.455,12.155-58.326,12.31575-58.67614l.07854-.17044L376.17,446.21813l.219.26811C393.61024,503,404.10409,563.81843,396.35578,655.054A4.27417,4.27417,0,0,1,392.12393,658.94385Z" transform="translate(-238.5 -213)" fill="#2f2e41"/><path d="M330.74325,469.00073l-.20338-.42749c-.0972-.20453-9.807-20.68365-17.292-42.57146a32.285,32.285,0,0,1,2.23858-25.87344,32.63737,32.63737,0,0,1,20.81263-16.00426h0a32.677,32.677,0,0,1,37.92777,19.56977c5.93722,14.84708,4.045,30.69453,2.26428,43.15723l-.03547.24968-.2271.10871Z" transform="translate(-238.5 -213)" fill="#42d392"/><path d="M367.75961,339.12034H330.96575V323.082c8.07584-3.20838,15.97846-5.93693,20.75551,0a16.03845,16.03845,0,0,1,16.03835,16.03833Z" transform="translate(-238.5 -213)" fill="#2f2e41"/><path d="M328.92871,320.2517c-21.99606,0-28.15279,27.5712-28.15279,43.12551,0,8.67446,3.923,11.777,10.08754,12.8268l2.17708-11.611,5.099,12.11064c1.73162.00864,3.55077-.02487,5.43671-.05988l1.72886-3.55987,3.85526,3.496c15.44087.023,27.92062,2.27382,27.92062-13.2027C357.081,347.8229,351.68164,320.2517,328.92871,320.2517Z" transform="translate(-238.5 -213)" fill="#2f2e41"/><path d="M426.69947,351.10915q.20986.38416.38766.7903a10.38022,10.38022,0,0,1-6.39269,14.10854,9.723,9.723,0,0,1-.98807.24952l-19.09943,49.40483a8.06133,8.06133,0,0,1-8.16325,5.09886l-.096-.01815-41.39664-12.46211a8.89852,8.89852,0,1,1,5.286-16.99313l29.29033,9.40381,22.67641-40.20174a9.87678,9.87678,0,0,1-.51127-1.28942,10.38005,10.38005,0,0,1,19.0069-8.09131Z" transform="translate(-238.5 -213)" fill="#ffb8b8"/><path d="M725.11024,369h-43a9.5108,9.5108,0,0,1-9.5-9.5v-43a9.5108,9.5108,0,0,1,9.5-9.5h43a9.51081,9.51081,0,0,1,9.5,9.5v43A9.51081,9.51081,0,0,1,725.11024,369Zm-43-60a7.50836,7.50836,0,0,0-7.5,7.5v43a7.50836,7.50836,0,0,0,7.5,7.5h43a7.50836,7.50836,0,0,0,7.5-7.5v-43a7.50836,7.50836,0,0,0-7.5-7.5Z" transform="translate(-238.5 -213)" fill="#3f3d56"/><path d="M703.61024,338.5a9,9,0,1,1,9-9A9.01015,9.01015,0,0,1,703.61024,338.5Z" transform="translate(-238.5 -213)" fill="#42d392"/><path d="M712.5962,355.5H694.62427a3.7391,3.7391,0,0,1-3.93136-3.5c0-6.34082,5.79448-11.5,12.91733-11.5s12.91732,5.15918,12.91732,11.5A3.7391,3.7391,0,0,1,712.5962,355.5Z" transform="translate(-238.5 -213)" fill="#42d392"/><polygon points="601.057 461.529 588.798 461.528 582.965 414.24 601.06 414.241 601.057 461.529" fill="#a0616a"/><path d="M580.0404,458.02535h23.64387a0,0,0,0,1,0,0v14.88687a0,0,0,0,1,0,0H565.15355a0,0,0,0,1,0,0v0A14.88686,14.88686,0,0,1,580.0404,458.02535Z" fill="#2f2e41"/><polygon points="690.811 427.625 681.753 435.888 645.573 404.885 658.941 392.69 690.811 427.625" fill="#a0616a"/><path d="M915.29591,647.30643h23.64388a0,0,0,0,1,0,0V662.1933a0,0,0,0,1,0,0H900.40906a0,0,0,0,1,0,0v0A14.88685,14.88685,0,0,1,915.29591,647.30643Z" transform="translate(-439.52766 577.85746) rotate(-42.37303)" fill="#2f2e41"/><path d="M827.50184,663.71436a4.47341,4.47341,0,0,1-4.44434-3.856l-10.68286-73.88965a42.89891,42.89891,0,0,1-.15063-11.12061l10.41186-88.97509,66.49805,5.58349-10.03638,84.30567,37.96607,47.33984a4.48912,4.48912,0,0,1-.55518,6.209l-9.55884,8.32519a4.49953,4.49953,0,0,1-6.37646-.46973l-35.97437-42.09765a56.53874,56.53874,0,0,1-11.71924-22.562l-5.13574-20.0293a1.4999,1.4999,0,0,0-2.87036-.11768l-6.793,19.62354,4.29761,86.43115a4.50989,4.50989,0,0,1-4.24463,4.71631l-10.37256.57617Q827.63051,663.71435,827.50184,663.71436Z" transform="translate(-238.5 -213)" fill="#2f2e41"/><circle cx="625.95434" cy="128.08067" r="24.56103" fill="#a0616a"/><path d="M721.797,369.63635a10.05579,10.05579,0,0,0,14.80212,4.31892l32.20332,19.50956-2.50289-16.49956-27.25773-17.6152A10.11027,10.11027,0,0,0,721.797,369.63635Z" transform="translate(-238.5 -213)" fill="#a0616a"/><path d="M863.31336,502.856h0c-13.04492.00049-26.61987-4.04639-40.3479-12.0293a4.99126,4.99126,0,0,1-2.1709-6.06494l12.769-34.40674-2.9043-40.54053c-.98779-13.79052,5.88721-26.88086,17.51514-33.34912A31.59424,31.59424,0,0,1,875.736,374.8335a33.97516,33.97516,0,0,1,19.57568,22.31l4.09888,14.26075a87.49009,87.49009,0,0,1-1.63745,53.10156l-11.875,33.34131-.30811.18408C885.50916,498.08008,877.36024,502.855,863.31336,502.856Z" transform="translate(-238.5 -213)" fill="#ccc"/><path d="M738.84461,381.082a4.99665,4.99665,0,0,1,.05329-5.61343l6.2231-8.98822a5.008,5.008,0,0,1,6.41732-1.58971L797.689,388.89129l50.92084-5.10461a14.23294,14.23294,0,0,1,14.85371,9.68A14.14226,14.14226,0,0,1,850.16387,412l-47.48465.48187a29.20591,29.20591,0,0,1-14.30956-3.58864l-47.76518-26.19435A5.01944,5.01944,0,0,1,738.84461,381.082Z" transform="translate(-238.5 -213)" fill="#ccc"/><path d="M885.62014,524.83843a10.05576,10.05576,0,0,0,.46288-15.41238l11.99337-33.01467-16.53924,3.51025L871.33246,510.7298a10.11027,10.11027,0,0,0,14.28768,14.10863Z" transform="translate(-238.5 -213)" fill="#a0616a"/><path d="M890.0221,505.63623a4.96759,4.96759,0,0,1-1.71777-.30566l-10.26319-3.76612a5.00811,5.00811,0,0,1-3.15063-5.8125l11.64038-50.69922L868.8014,397.04639a14.22708,14.22708,0,0,1,5.63891-16.8086,14.14225,14.14225,0,0,1,21.27955,8.21875l12.39233,45.84131a29.207,29.207,0,0,1,.12036,14.752l-13.35815,52.813a4.99762,4.99762,0,0,1-4.84766,3.77344h-.00464Z" transform="translate(-238.5 -213)" fill="#ccc"/><path d="M866.07639,358.41138c1.24542-5.168,1.8609-8.0697,3.09469-13.24056.82632-3.46317-1.667-7.00916-4.79545-8.62753s-6.7549-1.80418-10.25016-2.14678-7.16207-.95358-9.88621-3.202c-3.65739-3.01872-4.70327-8.64152-2.90463-13.0636a14.85471,14.85471,0,0,1,10.67623-8.53664,21.20272,21.20272,0,0,1,13.72679,2.11338c1.6487-3.87357,6.42628-5.55773,10.5308-4.882s7.66912,3.16729,11.0053,5.68586c6.20391,4.68352,12.56973,10.36122,13.94657,18.08221,1.32965,7.45634-2.45248,14.98109-7.51132,20.55483a45.48369,45.48369,0,0,1-26.28237,14.26285A9.30922,9.30922,0,0,1,866.07639,358.41138Z" transform="translate(-238.5 -213)"/><path d="M960.5,687h-192a1,1,0,0,1,0-2h192a1,1,0,0,1,0,2Z" transform="translate(-238.5 -213)" fill="#ccc"/><path d="M431.5,687h-192a1,1,0,0,1,0-2h192a1,1,0,0,1,0,2Z" transform="translate(-238.5 -213)" fill="#ccc"/></svg>