<svg width="602" height="539" viewBox="0 0 602 539" fill="none" xmlns="http://www.w3.org/2000/svg">
<g clip-path="url(#clip0_406_258)">
<path d="M286.035 131.101C285.067 129.304 283.447 127.768 281.374 126.684C279.302 125.599 276.868 125.014 274.374 125H41.6173C38.2715 125.001 35.0633 126.041 32.6975 127.891C30.3317 129.741 29.0018 132.25 29 134.867V365.133C29.0018 367.75 30.3317 370.258 32.6975 372.109C35.0633 373.959 38.2715 374.999 41.6173 375H274.383C277.728 374.997 280.934 373.956 283.3 372.106C285.665 370.257 286.996 367.749 287 365.133V134.867C287.005 133.574 286.68 132.294 286.044 131.101H286.035ZM284.19 365.133C284.187 367.168 283.151 369.119 281.311 370.558C279.471 371.997 276.977 372.806 274.374 372.809H41.6173C39.0145 372.809 36.5184 372 34.6779 370.561C32.8373 369.122 31.8028 367.17 31.8019 365.135V134.868C31.8055 132.833 32.8407 130.882 34.6807 129.444C36.5207 128.005 39.0152 127.195 41.6173 127.192H274.383C276.343 127.198 278.256 127.661 279.879 128.521C281.502 129.381 282.76 130.599 283.493 132.021C283.636 132.304 283.759 132.593 283.862 132.887C284.085 133.533 284.198 134.199 284.198 134.868L284.19 365.133Z" fill="#3F3D56"/>
<path d="M136.503 239.028H85.3056C83.6338 239.026 82.031 238.362 80.8488 237.179C79.6667 235.997 79.0018 234.394 79 232.723V172.306C79.0018 170.634 79.6667 169.031 80.8488 167.849C82.031 166.667 83.6338 166.002 85.3056 166H136.503C138.175 166.002 139.778 166.667 140.96 167.849C142.142 169.031 142.807 170.634 142.809 172.306V232.723C142.807 234.394 142.142 235.997 140.96 237.179C139.778 238.362 138.175 239.026 136.503 239.028Z" fill="#CCCCCC"/>
<path d="M238.503 239.028H187.306C185.634 239.026 184.031 238.362 182.849 237.179C181.667 235.997 181.002 234.394 181 232.723V172.306C181.002 170.634 181.667 169.031 182.849 167.849C184.031 166.667 185.634 166.002 187.306 166H238.503C240.175 166.002 241.778 166.667 242.96 167.849C244.142 169.031 244.807 170.634 244.809 172.306V232.723C244.807 234.394 244.142 235.997 242.96 237.179C241.778 238.362 240.175 239.026 238.503 239.028Z" fill="#CCCCCC"/>
<path d="M170.838 293H145.162C144.324 292.999 143.52 292.662 142.927 292.063C142.334 291.464 142.001 290.652 142 289.805V259.195C142.001 258.348 142.334 257.536 142.927 256.937C143.52 256.338 144.324 256.001 145.162 256H170.838C171.676 256.001 172.48 256.338 173.073 256.937C173.666 257.536 173.999 258.348 174 259.195V289.805C173.999 290.652 173.666 291.464 173.073 292.063C172.48 292.662 171.676 292.999 170.838 293Z" fill="#CCCCCC"/>
<path d="M227.107 326H88.8927C87.5951 326 86.3506 325.421 85.433 324.389C84.5155 323.358 84 321.959 84 320.5C84 319.041 84.5155 317.642 85.433 316.611C86.3506 315.579 87.5951 315 88.8927 315H227.107C228.405 315 229.649 315.579 230.567 316.611C231.485 317.642 232 319.041 232 320.5C232 321.959 231.485 323.358 230.567 324.389C229.649 325.421 228.405 326 227.107 326Z" fill="#CCCCCC"/>
<path d="M561.598 425.424C562.352 427.917 556.138 429.621 555.304 432.464C554.47 435.307 552.88 438.033 550.725 440.314L523.178 490.499C520.214 493.627 496.347 501.15 492.513 501.703C488.678 502.256 462.394 534.173 459.929 531.829L359.336 372.413C359.901 374.081 370.043 389.382 359.336 372.413C358.771 370.745 371.304 355.754 361.001 353.236C361.176 351.317 353.086 401.471 374.794 347.342C396.503 293.213 388.11 339.637 389.577 338.087L396.503 293.213C397.969 291.662 399.662 290.356 401.484 289.368C403.306 288.381 405.221 287.732 407.121 287.458C409.02 287.184 410.867 287.29 412.554 287.772C414.242 288.253 415.739 289.099 416.958 290.263L580.245 423.106C581.552 424.349 561.048 423.609 561.598 425.424Z" fill="#42D392"/>
<path d="M600.798 539H232.798C232.533 539 232.278 538.895 232.091 538.707C231.903 538.52 231.798 538.265 231.798 538C231.798 537.735 231.903 537.48 232.091 537.293C232.278 537.105 232.533 537 232.798 537H600.798C601.063 537 601.317 537.105 601.505 537.293C601.692 537.48 601.798 537.735 601.798 538C601.798 538.265 601.692 538.52 601.505 538.707C601.317 538.895 601.063 539 600.798 539Z" fill="#3F3D56"/>
<path d="M600.798 539H232.798C232.533 539 232.278 538.895 232.091 538.707C231.903 538.52 231.798 538.265 231.798 538C231.798 537.735 231.903 537.48 232.091 537.293C232.278 537.105 232.533 537 232.798 537H600.798C601.063 537 601.317 537.105 601.505 537.293C601.692 537.48 601.798 537.735 601.798 538C601.798 538.265 601.692 538.52 601.505 538.707C601.317 538.895 601.063 539 600.798 539Z" fill="#3F3D56"/>
<path d="M254.881 253.609C253.582 252.554 252.732 251.045 252.504 249.387C252.276 247.73 252.686 246.047 253.652 244.681L262.295 232.446C263.305 231.017 264.841 230.048 266.565 229.751C268.29 229.454 270.061 229.855 271.49 230.865L367.343 298.587C368.855 299.654 370.141 301.008 371.13 302.573C372.118 304.137 372.788 305.881 373.102 307.705C373.417 309.529 373.368 311.397 372.96 313.202C372.552 315.007 371.793 316.714 370.725 318.225C369.657 319.736 368.302 321.023 366.737 322.01C365.172 322.998 363.427 323.667 361.603 323.98C359.78 324.293 357.912 324.244 356.107 323.835C354.302 323.426 352.596 322.666 351.085 321.597L255.233 253.875C255.112 253.79 254.995 253.701 254.881 253.609Z" fill="#A0616A"/>
<path d="M276.082 272.292C274.687 271.31 273.726 269.827 273.4 268.152C273.074 266.477 273.409 264.742 274.335 263.308L286.473 244.551C286.944 243.824 287.553 243.197 288.267 242.705C288.98 242.213 289.783 241.866 290.63 241.685C291.477 241.504 292.352 241.491 293.204 241.647C294.056 241.804 294.869 242.127 295.596 242.598L376.503 294.958C377.971 295.908 379.002 297.403 379.369 299.114C379.735 300.825 379.407 302.612 378.457 304.081L366.318 322.838C365.847 323.565 365.238 324.192 364.524 324.684C363.811 325.176 363.008 325.523 362.161 325.704C361.314 325.885 360.439 325.898 359.587 325.742C358.735 325.585 357.922 325.262 357.195 324.791L276.289 272.431C276.218 272.386 276.149 272.34 276.082 272.292Z" fill="#E6E6E6"/>
<path d="M414.511 539.256H399.531C397.782 539.254 396.105 538.559 394.868 537.322C393.632 536.085 392.936 534.408 392.934 532.659V407.807C392.936 406.058 393.632 404.381 394.868 403.144C396.105 401.908 397.782 401.212 399.531 401.21H414.511C416.261 401.212 417.937 401.908 419.174 403.144C420.411 404.381 421.107 406.058 421.109 407.807V532.659C421.107 534.408 420.411 536.085 419.174 537.322C417.937 538.559 416.261 539.254 414.511 539.256Z" fill="#2F2E41"/>
<path d="M348.02 473.261L335.21 465.496C333.715 464.587 332.642 463.123 332.225 461.424C331.808 459.726 332.083 457.931 332.988 456.434L397.705 349.665C398.613 348.17 400.077 347.097 401.776 346.68C403.475 346.263 405.269 346.538 406.766 347.443L419.576 355.208C421.071 356.116 422.144 357.58 422.561 359.279C422.978 360.977 422.703 362.772 421.798 364.269L357.081 471.039C356.173 472.533 354.709 473.607 353.01 474.023C351.311 474.44 349.517 474.165 348.02 473.261Z" fill="#2F2E41"/>
<path d="M392 273C420.719 273 444 246.809 444 214.5C444 182.191 420.719 156 392 156C363.281 156 340 182.191 340 214.5C340 246.809 363.281 273 392 273Z" fill="#A0616A"/>
<path d="M403.038 200.753V202.782H428.639V200.753H403.038Z" fill="#2F2E41"/>
<path d="M379 248V250.03H404.601V248H379Z" fill="#2F2E41"/>
<path d="M357 201V203.03H382.601V201H357Z" fill="#2F2E41"/>
<path d="M434.981 441.305H347.696C345.409 441.302 343.216 440.393 341.599 438.775C339.981 437.158 339.072 434.965 339.069 432.678L357.342 292.551C357.357 290.274 358.272 288.096 359.888 286.491C361.503 284.887 363.688 283.988 365.965 283.989H396.941C409.314 284.003 421.175 288.924 429.924 297.673C438.673 306.422 443.594 318.284 443.608 330.656V432.678C443.605 434.965 442.696 437.158 441.078 438.775C439.461 440.393 437.268 441.303 434.981 441.305Z" fill="#E6E6E6"/>
<path d="M488.364 410.671C488.629 411.917 488.528 413.213 488.074 414.403C487.62 415.593 486.831 416.626 485.804 417.378L473.706 426.213C473.006 426.724 472.213 427.092 471.371 427.296C470.529 427.501 469.655 427.537 468.799 427.404C467.943 427.27 467.122 426.969 466.382 426.519C465.642 426.068 464.998 425.475 464.488 424.776L395.271 329.997C394.18 328.503 393.394 326.809 392.958 325.011C392.522 323.214 392.444 321.348 392.729 319.52C393.014 317.692 393.656 315.938 394.618 314.359C395.581 312.779 396.845 311.404 398.339 310.313C399.833 309.222 401.528 308.436 403.325 308C405.123 307.564 406.989 307.486 408.817 307.771C410.645 308.056 412.399 308.698 413.978 309.66C415.558 310.623 416.932 311.887 418.023 313.381L487.24 408.16C487.788 408.908 488.171 409.764 488.364 410.671Z" fill="#A0616A"/>
<path d="M475.307 382.563C475.41 383.875 475.096 385.242 474.404 386.502C473.712 387.761 472.672 388.859 471.407 389.662L445.992 405.782C444.254 406.882 442.218 407.35 440.33 407.082C438.442 406.815 436.857 405.835 435.922 404.357L384.535 322.828C384.073 322.095 383.785 321.261 383.687 320.375C383.59 319.489 383.684 318.568 383.966 317.664C384.248 316.76 384.711 315.89 385.33 315.106C385.948 314.321 386.709 313.636 387.57 313.09L412.984 296.971C413.844 296.425 414.787 296.029 415.759 295.805C416.731 295.582 417.713 295.534 418.648 295.667C419.583 295.799 420.453 296.108 421.209 296.577C421.965 297.045 422.592 297.663 423.054 298.396L474.442 379.925C474.938 380.709 475.232 381.608 475.307 382.563Z" fill="#E6E6E6"/>
<path d="M331.863 458.238C331.881 458.124 331.903 458.009 331.928 457.895C332.108 457.047 332.455 456.244 332.948 455.531C333.441 454.819 334.071 454.211 334.801 453.743L347.389 445.623C348.86 444.677 350.646 444.353 352.356 444.722C354.065 445.091 355.559 446.123 356.509 447.591L395.342 507.797C396.29 509.268 396.615 511.055 396.246 512.765C395.877 514.475 394.844 515.969 393.374 516.917L380.785 525.037C379.314 525.983 377.528 526.307 375.818 525.938C374.108 525.569 372.615 524.537 371.665 523.069L332.832 462.863C331.945 461.496 331.599 459.847 331.863 458.238Z" fill="#2F2E41"/>
<path d="M287.09 179.179C316.963 179.179 341.179 154.963 341.179 125.09C341.179 95.2168 316.963 71 287.09 71C257.217 71 233 95.2168 233 125.09C233 154.963 257.217 179.179 287.09 179.179Z" fill="#FF6584"/>
<path d="M308.631 110.969L269.969 149.631C269.606 149.994 268.91 149.995 268.034 149.633C267.159 149.27 266.175 148.575 265.3 147.7C264.425 146.825 263.73 145.841 263.367 144.966C263.005 144.09 263.006 143.394 263.369 143.031L302.031 104.369C302.394 104.006 303.09 104.005 303.966 104.367C304.841 104.73 305.825 105.425 306.7 106.3C307.575 107.175 308.27 108.159 308.633 109.034C308.995 109.91 308.994 110.606 308.631 110.969Z" fill="white"/>
<path d="M302.031 149.631L263.369 110.969C263.006 110.606 263.005 109.91 263.367 109.034C263.729 108.159 264.425 107.175 265.3 106.3C266.175 105.425 267.159 104.73 268.034 104.367C268.91 104.005 269.606 104.006 269.968 104.369L308.631 143.031C308.994 143.394 308.995 144.09 308.632 144.966C308.27 145.841 307.575 146.825 306.7 147.7C305.825 148.575 304.841 149.27 303.965 149.633C303.09 149.995 302.394 149.994 302.031 149.631Z" fill="white"/>
</g>
<defs>
<clipPath id="clip0_406_258">
<rect width="601.798" height="539" fill="white"/>
</clipPath>
</defs>
</svg>
