<svg xmlns="http://www.w3.org/2000/svg" data-name="Layer 1" width="754.5223" height="543.96848" viewBox="0 0 754.5223 543.96848" xmlns:xlink="http://www.w3.org/1999/xlink"><path d="M551.04034,657.31111l1.14386-25.71949a83.06565,83.06565,0,0,1,38.74475-9.8078c-18.60846,15.21375-16.283,44.54071-28.899,64.99964a49.96442,49.96442,0,0,1-36.63941,23.08923l-15.5722,9.53436a83.72441,83.72441,0,0,1,17.647-67.84509,80.8739,80.8739,0,0,1,14.863-13.81018C546.05786,647.586,551.04034,657.31111,551.04034,657.31111Z" transform="translate(-221.74432 -177.69144)" fill="#f2f2f2"/><path d="M650.03105,299.47835a38.99224,38.99224,0,0,0,5.03952,16.61592c6.12735,10.761,16.635,18.55205,27.952,23.183,14.13887,5.78576,29.89994,5.964,44.905,4.67391,13.93671-1.19822,27.73161-3.9757,41.71968-4.54814a290.67425,290.67425,0,0,1,32.435.77368c20.93161,1.48566,41.77624,4.2422,62.48665,7.58393q8.4134,1.34093,16.79136,2.8814a8.30467,8.30467,0,0,1,1.55946.28974c.1014.04156.26447.00913.35731.06753.1686.10618-.682-.26919-.16637.15694a15.47439,15.47439,0,0,1,1.91221,2.46084l7.64884,9.84331c2.19349,2.82282,4.22918,6.25235,7.064,8.4773a12.79058,12.79058,0,0,0,14.15921.98683,14.14994,14.14994,0,0,0,5.26533-5.981,51.61658,51.61658,0,0,1,6.26129-9.03759c9.09984-10.61576,21.74694-17.14527,32.32495-26.07738a57.57525,57.57525,0,0,0,12.92811-14.77806,41.79054,41.79054,0,0,0,5.34146-16.5949c1.26668-11.87124-2.37608-23.97752-8.50294-34.07663a68.07168,68.07168,0,0,0-27.63411-25.2936c-12.802-6.52219-26.968-9.69913-41.16812-11.28228-15.07643-1.68086-30.32813-1.67562-45.47815-1.50592q-25.50363.28389-50.91512,2.24306-25.44588,1.96956-50.69116,5.59916c-16.14935,2.32185-32.496,4.74188-48.30385,8.85022-13.96485,3.62937-27.89045,9.30228-38.31856,19.58089C655.73206,273.70962,649.28318,286.216,650.03105,299.47835Z" transform="translate(-221.74432 -177.69144)" fill="#e6e6e6"/><path d="M723.81369,251.76327c-15.07584,2.78138-30.853,6.1869-43.50271,14.43517-12.51045,8.15792-20.11639,20.98344-19.37655,32.67469,1.08083,17.07717,19.23712,29.84759,35.77225,33.19362,15.83884,3.20335,32.337,1.034,49.8042-1.26426,3.86547-.50845,7.86261-1.03454,11.8168-1.49176,42.997-4.97,123.7307,10.33882,127.14667,10.99274l3.55035.67978,18.79259,24.184c4.27867-9.52407,11.716-17.99437,19.614-24.30576,3.6154-2.88934,7.38836-5.57211,11.03627-8.16674,9.307-6.61822,18.09794-12.87012,22.95-21.45883,10.56635-18.70445-1.91929-44.7857-19.73408-56.49457-20.07065-13.19129-46.51932-15.26039-72.11082-15.532q-3.99777-.04242-8.00041-.04242A760.84686,760.84686,0,0,0,723.81369,251.76327Z" transform="translate(-221.74432 -177.69144)" fill="#fff"/><path d="M711.78594,272.43445a3.94864,3.94864,0,0,1,3.94454-3.95279H897.214a3.94868,3.94868,0,0,1,0,7.89736H715.73048A3.94866,3.94866,0,0,1,711.78594,272.43445Z" transform="translate(-221.74432 -177.69144)" fill="#e6e6e6"/><path d="M711.78594,296.67192a3.94865,3.94865,0,0,1,3.94454-3.95279H897.22221a3.94868,3.94868,0,1,1-.00825,7.89736H715.73048A3.94866,3.94866,0,0,1,711.78594,296.67192Z" transform="translate(-221.74432 -177.69144)" fill="#e6e6e6"/><path d="M872.12022,320.90882a3.94866,3.94866,0,0,1,3.94454-3.95279H897.214a3.94868,3.94868,0,0,1,0,7.89736h-21.1492A3.94867,3.94867,0,0,1,872.12022,320.90882Z" transform="translate(-221.74432 -177.69144)" fill="#e6e6e6"/><path d="M475.182,253.18047a31.00734,31.00734,0,0,0-20.87789-17.75071c-10.22961-2.66081-25.20832,1.39247-32.89869,7.21221-14.06716,10.64548-17.50009,47.21656-7.83535,58.77344,1.92234-.07727,8.55563-.13442,10.50126-.18975l2.75234-6.96563v6.897c15.18626-.35636,30.99654-.13323,46.81541.09752C475.05688,293.07212,478.43448,261.05141,475.182,253.18047Z" transform="translate(-221.74432 -177.69144)" fill="#2f2e41"/><polygon points="250.859 516.477 264.711 516.477 271.3 463.05 250.857 463.051 250.859 516.477" fill="#9e616a"/><polygon points="129.606 507.864 143.009 511.357 162.862 461.32 143.079 456.165 129.606 507.864" fill="#9e616a"/><polygon points="205.937 188.337 202.799 196.497 203.427 204.657 264.851 225.932 261.803 190.22 254.898 182.059 205.937 188.337" fill="#ffb6b6"/><circle cx="232.28878" cy="92.96523" r="21.93835" fill="#9e616a"/><path d="M469.10739,242.08906a27.55525,27.55525,0,0,0-41.89371,24.04844c11.95862,3.05647,24.70245,4.33491,38.20715.73613l3.08706-7.55528,1.82,7.56086q6.1974,4.35942,11.96314-.0157A28.1354,28.1354,0,0,0,469.10739,242.08906Z" transform="translate(-221.74432 -177.69144)" fill="#2f2e41"/><path d="M469.16843,687.3358l21.89607-1.3069v9.38122l20.8172,14.37711a5.85987,5.85987,0,0,1-3.32977,10.682H482.48384l-4.49323-9.27947-1.75438,9.27947h-9.82871Z" transform="translate(-221.74432 -177.69144)" fill="#2f2e41"/><path d="M348.5345,677.76034l21.51772,4.25832-2.36627,9.0779,16.51767,19.16307a5.85987,5.85987,0,0,1-5.91648,9.49672l-25.2252-6.5753-2.00734-10.11278-4.03827,8.53691-9.5109-2.47915Z" transform="translate(-221.74432 -177.69144)" fill="#2f2e41"/><path d="M353.04952,651.95658,393.65077,568.509l12.74555-101.56616c-8.78784-16.32031,7.53247-49.52881,7.53247-49.52881V403.47111l63.2204,11.92682v.00006a303.46687,303.46687,0,0,1,18.49249,110.18756l-2.54742,135.00989h.79913a5,5,0,0,1,0,10h-25a5,5,0,1,1,0-10h.64459L451.591,488.83885l-20.86791,84.75757-50.4297,78.03936a4.98737,4.98737,0,0,1-.4,9.95966h-25a4.9948,4.9948,0,0,1-1.84387-9.63886Z" transform="translate(-221.74432 -177.69144)" fill="#2f2e41"/><path d="M408.213,425.96226h.00006a3.98673,3.98673,0,0,1,3.6051-2.99481c.83332-9.52729,6.33936-70.62873,6.54883-72.42127l.00818-.0758,1.5943-34.05774a5.03656,5.03656,0,0,1,4.70251-4.79035l8.42078-.55041a.44562.44562,0,0,0,.4306-.44531,7.08138,7.08138,0,0,1,7.08136-7.08142h24.93116a6.63,6.63,0,0,1,6.57562,5.80383.44014.44014,0,0,0,.448.39612l.003-.00006a11.8446,11.8446,0,0,1,11.91546,9.82434c3.40839,19.831,10.23908,64.83984,6.86188,89.86218-1.17566,8.71069-.6413,21.81158-.19672,29.09979a5.36475,5.36475,0,0,1-1.33563,3.88959,3.99244,3.99244,0,0,1,2.76636,4.80768h-.00006a4,4,0,0,1-4.85639,2.90088l-76.60345-19.31086A4,4,0,0,1,408.213,425.96226Z" transform="translate(-221.74432 -177.69144)" fill="#3f3d56"/><path d="M640.31694,721.65991H222.935a1.19068,1.19068,0,1,1,0-2.38136H640.31694a1.19068,1.19068,0,1,1,0,2.38136Z" transform="translate(-221.74432 -177.69144)" fill="#cacaca"/><path d="M411.74389,483.42011a9.76016,9.76016,0,0,0-1.3573-14.90445l15.5401-77.18656L408.76562,396.839l-12.43909,74.65875a9.81312,9.81312,0,0,0,15.41736,11.92237Z" transform="translate(-221.74432 -177.69144)" fill="#9e616a"/><path d="M434.68963,320.11359,424.042,312.0762S414.6491,311.411,412.98553,328.35s-5.07941,49.95013-5.07941,49.95013l-16.293,75.46286,22.554,4.95047,17.451-81.43777,10.46888-24.184Z" transform="translate(-221.74432 -177.69144)" fill="#3f3d56"/><path d="M572.98059,341.96364a9.76014,9.76014,0,0,0-13.12449,7.19255l-76.97539,16.55438,11.9007,13.53641,73.42007-18.389a9.81312,9.81312,0,0,0,4.77911-18.89438Z" transform="translate(-221.74432 -177.69144)" fill="#9e616a"/><path d="M470.78344,383.76159a21.25227,21.25227,0,0,1-5.39211-8.55591l-14.05519-42.26181a17.79051,17.79051,0,0,1,21.95295-22.66623,17.82082,17.82082,0,0,1,12.69525,16.13213l1.72129,33.25753,56.80045-8.31761,14.76366,13.57166-.79734.27173c-3.13616,1.06845-74.92792,25.40466-86.81243,19.18408A3.77587,3.77587,0,0,1,470.78344,383.76159Z" transform="translate(-221.74432 -177.69144)" fill="#3f3d56"/><path d="M575.22826,315.04691c-.09912,0-.19825-.002-.29834-.00586a7.25255,7.25255,0,0,1-5.832-3.3169,81.93207,81.93207,0,0,0-17.24805-18.68359c-4.04785-3.23535-8.27783-6.24365-12.36817-9.15332-10.55273-7.50342-20.49072-14.57031-26.00732-24.335-12.02783-21.29248,2.13672-50.94971,22.37207-64.25,22.69678-14.917,52.55078-17.25684,81.43115-17.56348q4.50221-.04761,9.00977-.04736h0A859.03621,859.03621,0,0,1,781.42748,191.877c17.01757,3.13965,34.83056,6.98584,49.145,16.31983,14.22949,9.27881,22.87841,23.89062,22.03466,37.22656-1.23193,19.46826-21.86963,34.01514-40.66211,37.81836-17.91211,3.62207-36.52,1.17432-56.21972-1.418-4.34912-.57178-8.84571-1.16357-13.29248-1.67773-48.32715-5.58594-139.1128,11.63134-142.95362,12.36718l-3.81054.7295-14.78516,19.02636A7.09536,7.09536,0,0,1,575.22826,315.04691Z" transform="translate(-221.74432 -177.69144)" fill="#42d392"/><path d="M790.43441,220.074H586.17205a4.4443,4.4443,0,0,1,0-8.88859H790.43441a4.4443,4.4443,0,0,1,0,8.88859Z" transform="translate(-221.74432 -177.69144)" fill="#fff"/><path d="M790.43441,247.35358H586.17205a4.4443,4.4443,0,1,1-.00928-8.88859H790.43441a4.4443,4.4443,0,0,1,0,8.88859Z" transform="translate(-221.74432 -177.69144)" fill="#fff"/><path d="M609.97579,274.63258H586.17205a4.4443,4.4443,0,0,1,0-8.8886h23.80374a4.4443,4.4443,0,0,1,0,8.8886Z" transform="translate(-221.74432 -177.69144)" fill="#fff"/></svg>