<svg xmlns="http://www.w3.org/2000/svg" data-name="Layer 1" width="675.03315" height="423.65484" viewBox="0 0 675.03315 423.65484" xmlns:xlink="http://www.w3.org/1999/xlink"><path d="M333.20428,376.23077a9.64558,9.64558,0,0,1-5.68739-1.8833l-13.70575-9.95753a6.64167,6.64167,0,0,0-7.83386,0l-13.70575,9.95753a9.67536,9.67536,0,0,1-14.88925-10.81611l5.23531-16.11171a6.64911,6.64911,0,0,0-2.42065-7.45234l-13.70576-9.95753a9.67538,9.67538,0,0,1,5.6874-17.50249h16.94088a6.64759,6.64759,0,0,0,6.33795-4.60461l5.23531-16.1117a9.675,9.675,0,0,1,18.40371,0l5.23458,16.1117a6.6485,6.6485,0,0,0,6.33868,4.60461h16.94089a9.67538,9.67538,0,0,1,5.68739,17.50249l-13.70575,9.95753a6.64835,6.64835,0,0,0-2.42139,7.45234l5.23531,16.11171a9.52983,9.52983,0,0,1-3.5152,10.81611A9.64507,9.64507,0,0,1,333.20428,376.23077Z" transform="translate(-262.48343 -238.17258)" fill="#42d392"/><path d="M472.09073,376.23077a9.645,9.645,0,0,1-5.68665-1.8833l-13.70576-9.95753a6.65671,6.65671,0,0,0-7.83459,0L431.158,374.34747a9.67485,9.67485,0,0,1-14.88852-10.81611l5.23458-16.11171a6.64911,6.64911,0,0,0-2.42065-7.45234l-13.70576-9.95753a9.67538,9.67538,0,0,1,5.68739-17.50249h16.94089a6.64759,6.64759,0,0,0,6.338-4.60461l5.23531-16.1117a9.675,9.675,0,0,1,18.40371,0l5.23532,16.1117a6.64758,6.64758,0,0,0,6.33794,4.60461H486.497a9.67538,9.67538,0,0,1,5.68739,17.50249l-13.70575,9.95753a6.6491,6.6491,0,0,0-2.42066,7.45234l5.23458,16.11171a9.53055,9.53055,0,0,1-3.51447,10.81611A9.6472,9.6472,0,0,1,472.09073,376.23077Z" transform="translate(-262.48343 -238.17258)" fill="#42d392"/><path d="M563.14972,376.79092a10.60105,10.60105,0,0,1-6.24592-2.06657,10.47166,10.47166,0,0,1-3.86191-11.88337l5.236-16.11133a5.69848,5.69848,0,0,0-2.075-6.38572l-13.70633-9.95842a10.62763,10.62763,0,0,1,6.24711-19.22558h16.94119a5.6963,5.6963,0,0,0,5.43165-3.94712l5.236-16.11132a10.62775,10.62775,0,0,1,20.21506,0l5.23483,16.11132a5.6976,5.6976,0,0,0,5.43224,3.94712h16.94119a10.62788,10.62788,0,0,1,6.24712,19.22558l-13.70573,9.95842a5.69606,5.69606,0,0,0-2.07557,6.38572l5.23543,16.11133a10.62811,10.62811,0,0,1-16.35494,11.88217l-13.70513-9.95722a5.69727,5.69727,0,0,0-6.71515,0l-13.70572,9.95722A10.59328,10.59328,0,0,1,563.14972,376.79092Zm23.31011-18.03748a10.60642,10.60642,0,0,1,6.24591,2.03537l13.70573,9.95721a5.71156,5.71156,0,0,0,8.79012-6.38572L609.96676,348.249a10.60029,10.60029,0,0,1,3.86131-11.88218l13.70513-9.95841a5.7119,5.7119,0,0,0-3.35728-10.33285H607.23473a10.60034,10.60034,0,0,1-10.10723-7.3434l-5.23543-16.11133a5.71205,5.71205,0,0,0-10.86509,0l-5.23543,16.11133a10.599,10.599,0,0,1-10.10663,7.3434H548.74373a5.7119,5.7119,0,0,0-3.35787,10.33285l13.70632,9.95841A10.60211,10.60211,0,0,1,562.9529,348.249l-5.236,16.11132A5.71187,5.71187,0,0,0,566.507,370.746l13.70633-9.95721A10.60953,10.60953,0,0,1,586.45983,358.75344Z" transform="translate(-262.48343 -238.17258)" fill="#3f3d56"/><path d="M821.01339,401.49957l-33.67054,28.94535-52.771,45.3482L727.439,481.9254a6.46926,6.46926,0,0,0-2.25858,4.455,6.55471,6.55471,0,0,0,.75779,3.581,6.48946,6.48946,0,0,0,.79944,1.15786l3.82588,4.45549,5.82417,6.77528c.10745.11984.20847.23165.3238.34527a6.5306,6.5306,0,0,0,8.872.342l59.83939-51.41648,33.7414-29.00132a6.53014,6.53014,0,0,0,.687-9.19569l-2.036-2.3674-7.60794-8.85573a6.51168,6.51168,0,0,0-9.194-.70115Z" transform="translate(-262.48343 -238.17258)" fill="#42d392"/><circle cx="584.1902" cy="85.293" r="53.68089" fill="#42d392"/><path d="M850.61841,531.926V655.30778a6.52582,6.52582,0,0,0,6.51965,6.51964h14.80437a6.52582,6.52582,0,0,0,6.51964-6.51964V531.926a6.52586,6.52586,0,0,0-6.51964-6.51965H857.13806A6.52586,6.52586,0,0,0,850.61841,531.926Z" transform="translate(-262.48343 -238.17258)" fill="#2f2e41"/><path d="M819.33421,531.926V655.30778a6.51922,6.51922,0,0,0,6.51965,6.51964h14.80437a6.52582,6.52582,0,0,0,6.51964-6.51964V531.926a6.52586,6.52586,0,0,0-6.51964-6.51965H825.85386A6.51926,6.51926,0,0,0,819.33421,531.926Z" transform="translate(-262.48343 -238.17258)" fill="#2f2e41"/><path d="M825.3443,548.82833a37.10159,37.10159,0,0,1-36.13757-45.35406l16.74637-73.41136a41.311,41.311,0,0,1,65.3994-33.49932,41.41018,41.41018,0,0,1,17.26063,33.57551c.023.66334,2.35781,68.9348,3.33706,100.48351A16.39114,16.39114,0,0,1,875.99,547.51479l-49.451,1.29515C826.14031,548.82176,825.741,548.82833,825.3443,548.82833Z" transform="translate(-262.48343 -238.17258)" fill="#2f2e41"/><path d="M801.34146,347.19539l.05583-2.006c-3.73194-.10382-7.02213-.33793-9.49442-2.14415a6.16659,6.16659,0,0,1-2.38855-4.542,3.525,3.525,0,0,1,1.15632-2.90328c1.64117-1.386,4.28194-.93739,6.20669-.05485l1.65978.76108-3.18293-23.26051-1.98743.27231,2.70738,19.78617c-2.61531-.76891-5.03862-.43784-6.69841.96384a5.48751,5.48751,0,0,0-1.866,4.50577,8.15722,8.15722,0,0,0,3.20986,6.09159C793.89618,346.98675,798.02434,347.10233,801.34146,347.19539Z" transform="translate(-262.48343 -238.17258)" fill="#2f2e41"/><rect x="544.35311" y="76.85166" width="10.80404" height="2.00604" fill="#2f2e41"/><path d="M860.69859,411.52328l1.8454,44.36365,2.87879,69.51945.39132,9.39831a6.46928,6.46928,0,0,0,2.09616,4.53368,6.55461,6.55461,0,0,0,3.2799,1.62489,6.48847,6.48847,0,0,0,1.40413.0903l5.86778-.24077,8.9268-.37112c.16064-.01.311-.02.47163-.0401a6.5306,6.5306,0,0,0,5.76738-6.75032l-3.25982-78.82753-1.8454-44.45394a6.53015,6.53015,0,0,0-6.79048-6.23877l-3.11975.1304-11.665.48143a6.51166,6.51166,0,0,0-6.24881,6.78044Z" transform="translate(-262.48343 -238.17258)" fill="#42d392"/><path d="M856.19527,415.27457v34.10275a6.51537,6.51537,0,0,0,6.34872,6.50961.92273.92273,0,0,0,.17093.01h24.07253a6.24824,6.24824,0,0,0,1.15337-.11032,6.42576,6.42576,0,0,0,2.42724-.96293,6.54742,6.54742,0,0,0,2.939-5.4464V415.27457a18.57832,18.57832,0,0,0-18.55591-18.55591,18.143,18.143,0,0,0-3.7917.3912A18.58521,18.58521,0,0,0,856.19527,415.27457Z" transform="translate(-262.48343 -238.17258)" fill="#2f2e41"/><path d="M785.86325,429.50746a6.44681,6.44681,0,0,0,1.19354,2.2167l15.24613,18.62606a5.40306,5.40306,0,0,0,.9325.92283,6.51607,6.51607,0,0,0,8.245-.01L837.87,429.66791a18.55679,18.55679,0,1,0-23.51127-28.71652l-26.38908,21.59509A6.55463,6.55463,0,0,0,785.86325,429.50746Z" transform="translate(-262.48343 -238.17258)" fill="#2f2e41"/><path d="M838.45394,291.90155c-8.94291,3.72327-18.57363,7.84234-28.48413,6.701-8.119-.935-15.92146-5.682-17.79155-14.07058-1.787-8.01579,1.90729-16.37772,7.79492-21.74707,6.66-6.07371,15.85457-9.01217,24.62984-10.25157,5.3017-.74881,11.192-.79725,16.08034,1.68437,3.91289,1.98643,7.43013,5.57809,8.03522,10.093l3.75975-1.01833c-2.65722-4.50444-1.3857-9.9639,1.55442-14.01015,3.5351-4.86506,9.4698-6.89112,15.29791-7.06036,11.85331-.3442,23.98185,5.1564,33.52675,11.81414a73.86714,73.86714,0,0,1,22.6006,25.35264c6.1254,11.33581,9.49858,24.891,7.43836,37.75391-2.09686,13.09169-10.56584,25.51484-23.675,29.45551-2.48059.74568-1.42376,4.64152,1.07272,3.89107,12.51432-3.76187,21.75813-14.59825,25.3086-26.956,4.08-14.20073,1.27336-29.75319-4.985-42.8837a77.86716,77.86716,0,0,0-24.11914-28.947c-10.28386-7.58072-23.61292-13.67863-36.60394-13.52718-7.46429.087-14.69369,2.74738-19.21186,8.88808-3.85747,5.24276-5.09518,12.49121-1.68877,18.26567.9351,1.58514,4.039,1.06531,3.75975-1.01832-1.41594-10.56515-11.64068-15.99653-21.48617-16.231a55.23276,55.23276,0,0,0-16.39851,2.4248,47.28259,47.28259,0,0,0-13.81709,6.31531c-7.95055,5.50416-13.54384,14.29378-13.31992,24.19188.22339,9.8746,6.87528,17.45962,16.09536,20.38,12.16794,3.85406,24.50663-.93921,35.6992-5.5991a2.08766,2.08766,0,0,0,1.40917-2.48189,2.02875,2.02875,0,0,0-2.48189-1.40917Z" transform="translate(-262.48343 -238.17258)" fill="#2f2e41"/><path d="M674.65254,489.69886a10.601,10.601,0,0,1-6.24592-2.06657,10.47165,10.47165,0,0,1-3.86191-11.88337l5.236-16.11132a5.69849,5.69849,0,0,0-2.075-6.38573l-13.70633-9.95841a10.62763,10.62763,0,0,1,6.24711-19.22558h16.94119a5.6963,5.6963,0,0,0,5.43165-3.94712l5.236-16.11133a10.62775,10.62775,0,0,1,20.21506,0l5.23483,16.11133a5.6976,5.6976,0,0,0,5.43224,3.94712h16.94119a10.62788,10.62788,0,0,1,6.24712,19.22558l-13.70573,9.95841a5.69607,5.69607,0,0,0-2.07557,6.38573L731.38,475.74892a10.62811,10.62811,0,0,1-16.35494,11.88217l-13.70513-9.95721a5.69727,5.69727,0,0,0-6.71515,0l-13.70572,9.95721A10.59321,10.59321,0,0,1,674.65254,489.69886Zm23.31011-18.03748a10.60642,10.60642,0,0,1,6.24591,2.03537l13.70573,9.95722a5.71156,5.71156,0,0,0,8.79012-6.38573l-5.23483-16.11132a10.60027,10.60027,0,0,1,3.86131-11.88217l13.70513-9.95842a5.7119,5.7119,0,0,0-3.35728-10.33285H718.73755a10.60034,10.60034,0,0,1-10.10723-7.3434l-5.23543-16.11132a5.712,5.712,0,0,0-10.86509,0l-5.23543,16.11132a10.599,10.599,0,0,1-10.10663,7.3434H660.24655a5.7119,5.7119,0,0,0-3.35787,10.33285l13.70632,9.95842a10.6021,10.6021,0,0,1,3.86072,11.88217l-5.236,16.11132a5.71187,5.71187,0,0,0,8.79012,6.38573l13.70633-9.95722A10.60953,10.60953,0,0,1,697.96265,471.66138Z" transform="translate(-262.48343 -238.17258)" fill="#3f3d56"/></svg>